<svg xmlns="http://www.w3.org/2000/svg" width="160" height="40" viewBox="0 0 160 40">
  <!-- Trophy icon -->
  <g transform="translate(0, 4)">
    <!-- Cup body -->
    <path d="M14 4 H26 V18 C26 22.4 22.4 26 18 26 V28 H22 V30 H14 V28 H18 V26 C13.6 26 10 22.4 10 18 V4 Z" fill="none" stroke="#775144" stroke-width="1.8" stroke-linejoin="round"/>
    <!-- Handles -->
    <path d="M10 8 C6 8 4 10 4 13 C4 16 6 18 10 18" fill="none" stroke="#775144" stroke-width="1.8" stroke-linecap="round"/>
    <path d="M26 8 C30 8 32 10 32 13 C32 16 30 18 26 18" fill="none" stroke="#775144" stroke-width="1.8" stroke-linecap="round"/>
    <!-- Base line -->
    <line x1="12" y1="30" x2="24" y2="30" stroke="#775144" stroke-width="1.8" stroke-linecap="round"/>
  </g>
  <!-- Wordmark -->
  <text x="42" y="27" font-family="Outfit, Georgia, serif" font-size="22" font-weight="800" fill="#775144" letter-spacing="-0.5">CoFound</text>
</svg>
